<svg width="42" height="31" viewBox="0 0 42 31" fill="none" xmlns="http://www.w3.org/2000/svg">
<g clip-path="url(#clip0_20_227)">
<path d="M36.0002 15.5001C36.0007 18.2599 35.2644 20.9698 33.8672 23.3498C32.4701 25.7298 30.4628 27.6936 28.0528 29.0384C27.922 29.1135 27.7876 29.1861 27.6544 29.2551C25.4961 30.3748 23.105 30.9722 20.6737 30.9991C18.2423 31.026 15.8386 30.4818 13.656 29.4101C13.5228 29.346 13.392 29.2794 13.26 29.2091C10.7214 27.8656 8.60575 25.8435 7.14899 23.3681C5.69222 20.8927 4.95156 18.0614 5.00957 15.1897C5.06758 12.3181 5.92199 9.51899 7.47753 7.10446C9.03308 4.68994 11.2286 2.75487 13.8195 1.51498C13.9079 1.47018 13.995 1.42658 14.0859 1.38662C14.3281 1.27521 14.5811 1.16744 14.8318 1.06936C16.41 0.448993 18.0797 0.0930486 19.7736 0.0158394C19.8887 0.0158394 20.0061 0.00857381 20.1212 0.004941C20.2362 0.00130819 20.3634 0.004941 20.4954 0.004941C20.6274 0.004941 20.7436 0.004941 20.8695 0.004941C22.6831 0.046074 24.4752 0.406385 26.1638 1.06936C26.4144 1.16744 26.6639 1.27521 26.9097 1.38662C27.0005 1.42658 27.0877 1.47018 27.1761 1.51498C29.8165 2.77618 32.0462 4.75864 33.6076 7.23333C35.1691 9.70802 35.9985 12.574 36.0002 15.5001V15.5001Z" fill="url(#paint0_linear_20_227)"/>
<path d="M33.985 17.8783L30.8935 21.901C30.5661 22.3198 30.148 22.6588 29.6706 22.8925C29.1932 23.1261 28.6689 23.2484 28.1374 23.25C27.6264 23.2521 27.1214 23.1392 26.6601 22.9194L23.1883 21.2616C22.9607 21.1542 22.7133 21.0952 22.4617 21.0885L20.5 20.9807L18.5625 21.0848C18.3015 21.0929 18.0449 21.1539 17.8081 21.2641L14.3509 22.9218C13.8854 23.1407 13.377 23.2528 12.8626 23.25C12.3307 23.2478 11.8062 23.1248 11.3288 22.8903C10.8513 22.6558 10.4334 22.3158 10.1065 21.8962L7.01502 17.8783C6.49975 17.2135 6.18046 16.4179 6.09317 15.5813C6.00587 14.7447 6.15404 13.9004 6.52096 13.1435L10.3984 3.75391C11.4343 2.85911 12.5847 2.10616 13.8193 1.51489C13.9077 1.47008 13.9949 1.42649 14.0857 1.38653C14.3279 1.27512 14.581 1.16735 14.8316 1.06926C16.4098 0.448901 18.0795 0.092957 19.7735 0.0157479C19.8885 0.0157479 20.006 0.00848226 20.121 0.00484945C20.236 0.00121663 20.3632 0.00484945 20.4952 0.00484945C20.6272 0.00484945 20.7434 0.00484945 20.8694 0.00484945C22.6829 0.0459825 24.475 0.406294 26.1636 1.06926C26.4142 1.16735 26.6637 1.27512 26.9095 1.38653C27.0003 1.42649 27.0875 1.47008 27.1759 1.51489C28.1981 2.00131 29.1634 2.5991 30.0543 3.29739C31.3633 6.17821 32.561 9.14258 32.8395 9.72747L34.4779 13.1435C34.8447 13.9004 34.9929 14.7446 34.9058 15.5811C34.8187 16.4176 34.4998 17.2132 33.985 17.8783V17.8783Z" fill="url(#paint1_linear_20_227)"/>
<path d="M27.228 21.7157L23.7695 20.0555C23.3773 19.871 22.9518 19.768 22.5186 19.7528L20.5 19.6426V10.8234L29.3047 9.12804C29.7693 9.03795 30.2506 9.10451 30.6734 9.31728C31.0961 9.53006 31.4362 9.87703 31.6406 10.3039L33.2802 13.7211C33.5369 14.2562 33.6402 14.8519 33.5787 15.4421C33.5171 16.0324 33.2931 16.594 32.9315 17.0645L29.8375 21.0848C29.5403 21.4726 29.1191 21.7467 28.6443 21.8615C28.1694 21.9763 27.6695 21.9249 27.228 21.7157V21.7157Z" fill="#FFEEEE"/>
<path d="M20.5 10.8234V19.6426L18.485 19.7516C18.0504 19.7669 17.6235 19.8707 17.2305 20.0568L13.7672 21.7157C13.3262 21.9216 12.8283 21.9713 12.3554 21.8567C11.8824 21.742 11.4626 21.4698 11.1649 21.0848L8.07335 17.0633C7.7117 16.5928 7.48772 16.0311 7.42637 15.4408C7.36501 14.8505 7.46867 14.2548 7.72581 13.7199L9.35936 10.3051C9.56348 9.87942 9.9027 9.53326 10.3241 9.32057C10.7456 9.10788 11.2255 9.04062 11.6892 9.12926L12.0162 9.19344L20.5 10.8234Z" fill="#FFEEEE"/>
<path d="M14.0857 15.5C15.0447 15.5 15.8222 14.7226 15.8222 13.7635C15.8222 12.8045 15.0447 12.027 14.0857 12.027C13.1266 12.027 12.3492 12.8045 12.3492 13.7635C12.3492 14.7226 13.1266 15.5 14.0857 15.5Z" fill="#231F20"/>
<path d="M26.9143 15.5C27.8734 15.5 28.6508 14.7226 28.6508 13.7635C28.6508 12.8045 27.8734 12.027 26.9143 12.027C25.9553 12.027 25.1779 12.8045 25.1779 13.7635C25.1779 14.7226 25.9553 15.5 26.9143 15.5Z" fill="#231F20"/>
<path d="M26.1115 14.4307H15.1549V14.6984H26.1115V14.4307Z" fill="#231F20"/>
<path d="M27.1808 1.51489V3.05399C27.1808 3.96825 26.4942 4.77352 25.5085 5.00602L25.0483 5.11501C24.8113 5.1679 24.5886 5.27177 24.3958 5.41941C24.203 5.56705 24.0447 5.75491 23.9318 5.96993C23.5625 6.72676 22.7318 7.21598 21.8127 7.21598H19.1874C18.2683 7.21598 17.4376 6.73161 17.0682 5.97235C16.9556 5.75641 16.7971 5.56775 16.6038 5.41963C16.4105 5.27151 16.1871 5.16753 15.9493 5.11501L15.4916 5.00602C14.5059 4.77352 13.8193 3.96825 13.8193 3.05399V1.51489C13.9077 1.47008 13.9949 1.42649 14.0857 1.38653C14.3279 1.27512 14.581 1.16735 14.8316 1.06926C16.4098 0.448901 18.0795 0.092957 19.7735 0.0157479C19.8885 0.0157479 20.006 0.00848226 20.121 0.00484945C20.236 0.00121663 20.3632 0.00484945 20.4952 0.00484945C20.6272 0.00484945 20.7434 0.00484945 20.8694 0.00484945C22.6829 0.0459825 24.475 0.406294 26.1636 1.06926C26.4142 1.16735 26.6637 1.27512 26.9095 1.38653C27.0052 1.42649 27.0924 1.47008 27.1808 1.51489Z" fill="#FF7B7B"/>
<path d="M26.918 1.38653V3.05399C26.918 3.84594 26.3125 4.54102 25.4503 4.7493L24.9902 4.8595C24.714 4.92042 24.4547 5.04154 24.2307 5.21423C24.0067 5.38692 23.8236 5.60692 23.6945 5.85852C23.3711 6.52212 22.6337 6.94837 21.8163 6.94837H19.1873C18.37 6.94837 17.6325 6.51848 17.3092 5.85852C17.1811 5.60692 16.9991 5.38664 16.7762 5.21334C16.5533 5.04005 16.2949 4.91799 16.0195 4.85586L15.5594 4.74567C14.6875 4.54102 14.082 3.84594 14.082 3.05399V1.38653C14.3242 1.27512 14.5773 1.16735 14.828 1.06926C16.4073 0.448511 18.0782 0.0925603 19.7734 0.0157479C19.8885 0.0157479 20.0059 0.00848226 20.121 0.00484945C20.236 0.00121663 20.3632 0.00484945 20.4952 0.00484945C20.6271 0.00484945 20.7434 0.00484945 20.8693 0.00484945C22.6829 0.0459825 24.475 0.406294 26.1636 1.06926C26.4191 1.16735 26.6685 1.27512 26.918 1.38653Z" fill="url(#paint2_linear_20_227)"/>
<path d="M12.2257 21.8199C11.8053 21.6909 11.4358 21.4339 11.1685 21.0848L8.07335 17.0633C7.7117 16.5928 7.48772 16.0311 7.42637 15.4408C7.36501 14.8505 7.46867 14.2548 7.72581 13.7199L9.35936 10.3051C9.56348 9.87942 9.9027 9.53326 10.3241 9.32057C10.7456 9.10788 11.2255 9.04062 11.6892 9.12926L12.0162 9.19344L9.93577 13.5964C9.65556 14.1893 9.51428 14.8384 9.52267 15.4941C9.53106 16.1498 9.68891 16.795 9.98421 17.3806L12.2257 21.8199Z" fill="#F4E1E1"/>
<path d="M28.7744 21.8199C29.1951 21.6912 29.5652 21.4342 29.8327 21.0848L32.9279 17.0633C33.2893 16.5927 33.5131 16.031 33.5744 15.4408C33.6358 14.8505 33.5323 14.2549 33.2754 13.7199L31.6406 10.3051C31.4361 9.87946 31.0967 9.53338 30.6751 9.32072C30.2535 9.10806 29.7734 9.04075 29.3096 9.12926L28.9838 9.19344L31.0679 13.5964C31.3486 14.1892 31.4902 14.8383 31.4818 15.4941C31.4734 16.1499 31.3152 16.7952 31.0194 17.3806L28.7744 21.8199Z" fill="#F4E1E1"/>
<path d="M28.0526 29.0383C27.9219 29.1134 27.7874 29.186 27.6542 29.255C25.4959 30.3747 23.1048 30.9721 20.6735 30.999C18.2421 31.0259 15.8384 30.4817 13.6558 29.41C13.5226 29.3459 13.3918 29.2793 13.2598 29.209C14.713 28.0465 17.5308 27.2582 20.7676 27.2582C23.8458 27.2582 26.545 27.9727 28.0526 29.0383Z" fill="#FF7B7B"/>
<path d="M27.6542 29.255C25.4959 30.3747 23.1048 30.9721 20.6734 30.999C18.2421 31.0259 15.8384 30.4817 13.6558 29.41C14.9878 28.4243 17.5308 27.659 20.7676 27.659C23.8349 27.659 26.2725 28.3432 27.6542 29.255Z" fill="url(#paint3_linear_20_227)"/>
</g>
<defs>
<linearGradient id="paint0_linear_20_227" x1="20.5002" y1="0.294355" x2="20.5002" y2="30.9553" gradientUnits="userSpaceOnUse">
<stop stop-color="#FF3340"/>
<stop offset="1" stop-color="#FF0012"/>
</linearGradient>
<linearGradient id="paint1_linear_20_227" x1="20.5" y1="0.119889" x2="20.5" y2="21.1103" gradientUnits="userSpaceOnUse">
<stop stop-color="#EB4747"/>
<stop offset="1" stop-color="#BD000E"/>
</linearGradient>
<linearGradient id="paint2_linear_20_227" x1="14.0857" y1="3.47419" x2="26.9143" y2="3.47419" gradientUnits="userSpaceOnUse">
<stop stop-color="#FC3240"/>
<stop offset="1" stop-color="#FC0012"/>
</linearGradient>
<linearGradient id="paint3_linear_20_227" x1="20.655" y1="27.7208" x2="20.655" y2="30.8196" gradientUnits="userSpaceOnUse">
<stop stop-color="#FC3240" stop-opacity="0.9"/>
<stop offset="1" stop-color="#E00010"/>
</linearGradient>
<clipPath id="clip0_20_227">
<rect width="42" height="31" fill="white"/>
</clipPath>
</defs>
</svg>
